<svg xmlns="http://www.w3.org/2000/svg" width="833.22" height="633.134" viewBox="0 0 833.22 633.134">
  <g id="about1" transform="translate(-0.001 0)">
    <path id="Path_28" data-name="Path 28" d="M954.314,708.907c-27.3,20.79-60.56,41.85-93.26,51.78a132.156,132.156,0,0,1-29,5.61,87.681,87.681,0,0,1-27.45-2.13c-23.6-5.87-45.49-16.15-66.67-28.16-6.92-3.93-13.76-8.04-20.56-12.24-11.1-6.86-22.09-13.96-33.11-20.89-1.65-1.05-3.29-2.08-4.94-3.1h-.01q-3.99-2.5-8-4.94c-.47-.29-.94-.57-1.42-.86q-7.575-4.59-15.41-8.97c-.64-.35-1.28-.71-1.92-1.06a337.747,337.747,0,0,0-31.12-15.23c-6.98-2.94-14.05-5.59-21.19-7.85h-.01c-2.73-.86-5.47-1.67-8.22-2.41a172.029,172.029,0,0,0-25.14-4.92,137.465,137.465,0,0,0-35.21.28c-.79.11-1.57.22-2.36.35-31.6,5.06-60.44,22.12-92.18,26.14-1.03.13-2.05.25-3.08.34-.44.04-.88.09-1.32.12a126.185,126.185,0,0,1-27.68-.68c-25.63-3.38-50.59-13.87-73.06-27.09-52.53-30.91-95.13-78.42-121.03-133.44a297.444,297.444,0,0,1-11.83-28.93,278.468,278.468,0,0,1-15.67-84.85c-2.43-100.36,54.6-201.05,144.14-246.44s207.35-30.38,279.57,39.35c43.81,42.3,69.16,99.62,102.13,150.83s79.83,100.11,140.27,107.57c30.79,3.8,63.01-3.55,92.52,6.01,16.34,5.3,30.28,15.44,41.51,28.36a127.185,127.185,0,0,1,18.78,29,141.932,141.932,0,0,1,8.73,23.54c.41,1.49.79,2.98,1.16,4.47C1026.97,608.507,1003.48,671.447,954.314,708.907Z" transform="translate(-183.389 -133.445)" fill="rgba(158,158,158,0.6)"/>
    <rect id="Rectangle_10" data-name="Rectangle 10" width="145" height="51" rx="25.5" transform="translate(159.665 466.772)" fill="#3f3d56"/>
    <path id="Path_29" data-name="Path 29" d="M434.054,638.217v42.43a125.552,125.552,0,0,1-29-.56v-41.87Z" transform="translate(-183.389 -133.445)" fill="#3f3d56"/>
    <path id="Path_30" data-name="Path 30" d="M531.674,653.817c-.79.11-1.57.22-2.36.35-31.6,5.06-60.44,22.12-92.18,26.14-1.03.13-2.05.25-3.08.34-.44.04-.88.09-1.32.12-7.75-7.59-15.5-15.67-22.78-24.04-3.95-4.53-7.77-9.15-11.36-13.83-9.32-12.08-17.22-24.5-22.44-36.7.53-5.85-3.11-19.38-4.85-29.74l-.01-.01c-.74-4.35-1.14-8.13-.77-10.56,2.12-14.02,13.57-12.41,17.09-26.15a77.492,77.492,0,0,1,10.11-7.11c.59-.35,1.19-.7,1.81-1.05l38.2-26.4,14.6,14.32,22.22,21.8,24.08,23.61-20.44,20.65s17.08,19.69,37.05,45.94C520.6,638.547,526.174,646.077,531.674,653.817Z" transform="translate(-183.389 -133.445)" fill="#2f2e41"/>
    <path id="Path_31" data-name="Path 31" d="M861.054,638.217v122.47a132.156,132.156,0,0,1-29,5.61V638.217Z" transform="translate(-183.389 -133.445)" fill="#3f3d56"/>
    <rect id="Rectangle_11" data-name="Rectangle 11" width="145" height="51" rx="25.5" transform="translate(595.665 494.772)" fill="#3f3d56"/>
    <path id="Path_32" data-name="Path 32" d="M669.894,693.977q-7.575-4.59-15.41-8.97c-.64-.35-1.28-.71-1.92-1.06l3.44-1.47,9.28-3.99.09-.04.1.34Z" transform="translate(-183.389 -133.445)" fill="#ffb6b6"/>
    <path id="Path_33" data-name="Path 33" d="M684.264,702.877c-1.65-1.05-3.29-2.08-4.94-3.1h-.01q-3.99-2.5-8-4.94c-.47-.29-.94-.57-1.42-.86q-7.575-4.59-15.41-8.97c-.64-.35-1.28-.71-1.92-1.06a337.756,337.756,0,0,0-31.12-15.23c-6.98-2.94-14.05-5.59-21.19-7.85h-.01l-5.61-9.39-25.25-42.29-5.55-9.29s-18.93,5.6-45.72,10.97c-9.75,1.96-20.53,3.88-31.84,5.5-12.09,1.72-24.77,3.09-37.37,3.75-6.01.32-12,.48-17.9.43-15.25-.1-29.9-1.53-42.73-4.93-4.28-4.02-17.18-9.49-26.42-14.5h-.01c-3.88-2.1-7.1-4.11-8.79-5.9-9.74-10.3-1.42-18.33-10.08-29.57a78.02,78.02,0,0,1,.63-12.34c.09-.68.18-1.37.29-2.07l2.73-46.36,20.28-2.68,30.86-4.08,33.43-4.42,3.68,28.82s26.03-1.32,59.01-.88c52.97.72,123.85,6,133.45,28.66.9,2.13,1.8,4.28,2.7,6.43q3.21,7.71,6.36,15.5c7.61,18.8,14.87,37.78,21.5,55.72,4.12,11.16,8,21.92,11.57,31.99,2.87,8.1,5.53,15.76,7.96,22.81,2.22,6.44,4.23,12.37,6.02,17.69C683.724,701.267,683.994,702.087,684.264,702.877Z" transform="translate(-183.389 -133.445)" fill="#2f2e41"/>
    <path id="Path_34" data-name="Path 34" d="M497.708,421.99l-64.055-54.4,41.675-42.177L504.4,373.035,612.177,394.4a20.9,20.9,0,1,1-2.969,30.678Z" transform="translate(-183.389 -133.445)" fill="#a0616a"/>
    <path id="Path_35" data-name="Path 35" d="M377.042,296.092c-7.4,24.083,63.1,81.52,63.1,81.52.783-5.782,40.756,44.073,43.475,39.558,7.729-12.832,16.234-44.552,25.157-48.606,5.1-2.318-24.171-34.543-24.171-34.543s-14.933-19.756-34.649-44.794a53.412,53.412,0,0,0-47.084-20.961S384.445,272.009,377.042,296.092Z" transform="translate(-183.389 -133.445)" fill="#3f3d56"/>
    <circle id="Ellipse_1" data-name="Ellipse 1" cx="43.324" cy="43.324" r="43.324" transform="translate(181.501 22.685)" fill="#a0616a"/>
    <path id="Path_36" data-name="Path 36" d="M429.876,271.412c9.334,5.549,14.917,15.744,18.122,26.119a247.517,247.517,0,0,1,10.636,59.137l3.385,60.089L503.946,544.7c-36.336,30.746-172.919,6.988-172.919,6.988s-4.193-1.4,0-5.59,8.274-.478,4.082-4.671-1.3.478.1-3.714,0-1.4-1.4-2.8,10.819-13.976,10.819-13.976L333.445,447.5,319.47,299.363c16.771-20.963,50.5-33.321,50.5-33.321l8.715-15.687,43.574,3.486Z" transform="translate(-183.389 -133.445)" fill="#3f3d56"/>
    <path id="Path_37" data-name="Path 37" d="M443.928,176.437a20.078,20.078,0,0,1,7.133,10.02,141.017,141.017,0,0,0,.093-19.659c-.511-4.6-3.75-5.636-7.5-6.835-3.387-1.083-7.218-2.307-8.248-6.774-13.619-13.248-37.326-12.58-53.55-7.959-8.928,2.543-14.065,5.81-14.524,7.724l-.1.394-.363.181c-6.882,3.441-8.221,14.306-8.133,22.815.168,16.031,5.7,34.239,8.821,35.718.165.078.207.048.278-.012h0c4.7-3.752,10.424.285,12.941,2.48a45.059,45.059,0,0,1,40.346-38.219,70.7,70.7,0,0,0,9.724-1.631,20.473,20.473,0,0,1,4.968-.652A14.137,14.137,0,0,1,443.928,176.437Z" transform="translate(-183.389 -133.445)" fill="#2f2e41"/>
    <path id="Path_38" data-name="Path 38" d="M389.338,487.262l-13.253-6.787a3.632,3.632,0,0,1,3.276-6.4l13.253,6.787a3.632,3.632,0,0,1-3.276,6.4Z" transform="translate(-183.389 -133.445)" fill="#ffcc73"/>
    <path id="Path_39" data-name="Path 39" d="M344.735,469.078l-21.8-81.162,58.259-11.028L378.06,432.6l76.547,78.818a20.9,20.9,0,1,1-19.875,23.558Z" transform="translate(-183.389 -133.445)" fill="#a0616a"/>
    <path id="Path_40" data-name="Path 40" d="M316.972,296.916c-19.775,15.612,5.606,102.935,5.606,102.935,3.93-4.313,8.5,59.425,13.3,57.255,13.651-6.168,38.673-27.438,48.319-25.7,5.516.992-.263-42.159-.263-42.159s-1.063-24.742-3.061-56.548a53.412,53.412,0,0,0-26.836-44S336.747,281.3,316.972,296.916Z" transform="translate(-183.389 -133.445)" fill="#3f3d56"/>
    <path id="Path_41" data-name="Path 41" d="M1002.38,520.457l-791.42-.9a297.463,297.463,0,0,1-11.83-28.93l784.47.83a127.186,127.186,0,0,1,18.78,29Z" transform="translate(-183.389 -133.445)" fill="#3f3d56"/>
    <path id="Path_42" data-name="Path 42" d="M750.314,730.277q-6.135,2.97-12.38,5.73c-6.92-3.93-13.76-8.04-20.56-12.24l25.22-11.08Z" transform="translate(-183.389 -133.445)" fill="#ffb6b6"/>
    <path id="Path_43" data-name="Path 43" d="M934.194,592.477q-6.15,8.25-12.69,16.17-6.03,7.3-12.38,14.33c-1.75,1.94-3.52,3.87-5.33,5.78q-5,5.355-10.21,10.53c-6.26,1.97-18.94,5.44-32.53,8.68-9.89,2.35-20.26,4.58-29,6a104.479,104.479,0,0,1-14.81,1.58c-5.9.05-11.89-.11-17.9-.43-6.78-.36-13.57-.92-20.28-1.64-17.45-1.83-34.35-4.68-48.93-7.61-5.34-1.06-10.36-2.14-14.98-3.19-8.75-1.97-16.07-3.81-21.37-5.21-5.97-1.56-9.37-2.57-9.37-2.57l-14.95,25.04-7.76,12.99-5.7,9.55-1.52,2.53c-.64-.35-1.28-.71-1.92-1.06a337.794,337.794,0,0,0-31.12-15.23c-6.98-2.94-14.05-5.59-21.19-7.85h-.01c-2.73-.86-5.47-1.67-8.22-2.41q1.29-3.465,2.61-6.98,2.46-6.555,5.02-13.23c3.69-9.64,7.51-19.42,11.44-29.15,3.22-7.99,6.5-15.95,9.82-23.8,1.53-3.62,4.64-6.8,8.99-9.59a52.335,52.335,0,0,1,6.49-3.48c12.45-5.67,30.79-9.36,51-11.73,1.67-.19,3.35-.38,5.04-.56,16.73-1.76,34.48-2.67,51.08-3.09,8.31-.21,16.33-.29,23.79-.3q3.615,0,7.03.02h.01c6.15.03,11.81.12,16.79.22.97.02,1.91.05,2.83.07h.01c.62.01,1.23.03,1.83.04,10.89.28,17.57.62,17.57.62l2.59-20.32.53-4.1.5-3.9v-.01l.06-.49.41-.01,7.2-.14,60.52-1.18,33.06-.65L913,549.177l-8.65,37.06C905.234,592.1,934.494,587.507,934.194,592.477Z" transform="translate(-183.389 -133.445)" fill="#2f2e41"/>
    <path id="Path_44" data-name="Path 44" d="M757.774,726.577c-2.47,1.26-4.96,2.5-7.46,3.7q-6.135,2.97-12.38,5.73c-6.92-3.93-13.76-8.04-20.56-12.24-11.1-6.86-22.09-13.96-33.11-20.89-1.65-1.05-3.29-2.08-4.94-3.1h-.01c-4.54-6.74-9.17-13.76-13.84-20.99-.07-.1-.13-.2-.19-.3q-1.8-2.76-3.58-5.56c-7.47-11.7-14.98-23.9-22.27-36.36l18.46-8.62,34.32-16.02,5.92-2.76,17.02,33.51,15.18,29.89,3.38,6.65Z" transform="translate(-183.389 -133.445)" fill="#2f2e41"/>
    <path id="Path_45" data-name="Path 45" d="M762.946,565.7l87.5-84.384,24.252-68.67-35.773-15.556c-18.375,17.6-38.237,72.424-38.237,72.424l-60.212,76.6c-.469.161-.937.331-1.4.535A17.231,17.231,0,1,0,762.946,565.7Z" transform="translate(-183.389 -133.445)" fill="#ffb8b8"/>
    <path id="Path_46" data-name="Path 46" d="M828.86,404.753l45.375,14.405.171-.028c16.889-2.829,30.9-30.413,39.684-53.054A31.6,31.6,0,0,0,898,326.051h0a31.666,31.666,0,0,0-33.165,4.184l-23.3,19.039Z" transform="translate(-183.389 -133.445)" fill="#ffcc73"/>
    <path id="Path_47" data-name="Path 47" d="M934.012,593.49l.265-.352c14.157-18.776-5.206-65.273-8.133-72.017l13.164-3.9-2.294-25.064-1.105-11.176,10.235-9.72.034-.248,7.039-50.092,9.21-33.154a73.285,73.285,0,0,0-18.961-71.535L924.638,297.54l-22.556-35.306-37.819-.976-13.6,24.159a55.141,55.141,0,0,0-44.1,55.178l1.28,64.316L794.269,484.6l-.381,14.475-13.319,14.055,2.462,14.209-9.963,3.969L768.193,551.5c-1.862,2.33-14.156,17.87-14.268,22.2-.017.65.447,1.292,1.459,2.016,7.958,5.694,52.437,18.031,72.456,10.614,21.323-7.894,104.9,6.932,105.737,7.083Z" transform="translate(-183.389 -133.445)" fill="#ffcc73"/>
    <circle id="Ellipse_2" data-name="Ellipse 2" cx="50.104" cy="50.104" r="50.104" transform="translate(646.376 16.782)" fill="#ffb8b8"/>
    <path id="Path_48" data-name="Path 48" d="M873.756,251.1a136.269,136.269,0,0,0,23.181-1.62c7.6-1.545,24.6-14,29.339-21.5h0c3.521-5.57,5.772-14.268,7.042-20.583a60.914,60.914,0,0,0-10.654-48.358,19.245,19.245,0,0,0-7.773-6.634c-.278-.109-.565-.205-.855-.288a23.744,23.744,0,0,1-11.812-7.309,19.588,19.588,0,0,0-1.964-2.021,29.248,29.248,0,0,0-12.2-6.127c-7.254-1.941-17.752-.014-31.2,5.733-6.757,2.888-14.147,1.843-19.832.609a1.86,1.86,0,0,0-1.751.6,13.131,13.131,0,0,1-8.925,3.558c-2.032.089-4.164,2.9-6.741,6.572-.585.833-1.267,1.8-1.759,2.4L817.781,155l-1.149,1.267a15.935,15.935,0,0,0,7.194,25.961,31.075,31.075,0,0,0,6.25,1c1.279.115,2.6.234,3.87.454a24.024,24.024,0,0,1,17.853,15.59,6.283,6.283,0,0,0,9.483,3.05,10.381,10.381,0,0,1,9.459-1.722,6.891,6.891,0,0,1,3.046,3.455,8.98,8.98,0,0,0,3.408,3.976c5.15,2.655,5.5,14.417,3.655,24.222-1.783,9.451-5.307,16.288-8.57,16.626-2.512.26-2.8.438-2.981.883l-.162.4.282.372A10.261,10.261,0,0,0,873.756,251.1Z" transform="translate(-183.389 -133.445)" fill="#2f2e41"/>
    <path id="Path_49" data-name="Path 49" d="M841.3,389.605,821.983,351.09c-28.041,1.915-83.695,34.337-83.695,34.337l-105.3,22.325a19.023,19.023,0,1,0,5.186,32.508l133.947-9.6Z" transform="translate(-183.389 -133.445)" fill="#ffb8b8"/>
    <path id="Path_50" data-name="Path 50" d="M833.51,395.929l50.454-37.495,8.887-32.027a34.982,34.982,0,0,0-10.521-35.394h0a34.9,34.9,0,0,0-47.624,1.536c-18.987,18.951-40.642,45.39-35.99,63.723l.047.186Z" transform="translate(-183.389 -133.445)" fill="#ffcc73"/>
    <rect id="Rectangle_12" data-name="Rectangle 12" width="135" height="18" transform="translate(452.665 362.772)" fill="#fff"/>
    <rect id="Rectangle_13" data-name="Rectangle 13" width="135" height="18" transform="translate(107.665 362.772)" fill="#fff"/>
    <path id="Path_51" data-name="Path 51" d="M441.818,409.655v85.7a4.122,4.122,0,0,0,4.119,4.119h127a4.122,4.122,0,0,0,4.119-4.119v-85.7a4.124,4.124,0,0,0-4.119-4.115h-127a4.124,4.124,0,0,0-4.119,4.114Z" transform="translate(-183.389 -133.445)" fill="#3f3d56"/>
    <path id="Path_52" data-name="Path 52" d="M444.8,410.722V494.3a2.205,2.205,0,0,0,2.2,2.2H571.884a2.205,2.205,0,0,0,2.2-2.2v-83.58a2.206,2.206,0,0,0-2.2-2.206H447a2.206,2.206,0,0,0-2.2,2.206Z" transform="translate(-183.389 -133.445)" fill="#ffcc73"/>
    <path id="Path_53" data-name="Path 53" d="M439.161,512.074a2.47,2.47,0,0,0,1.943.93H577.1a2.5,2.5,0,0,0,2.447-3.016l-2.111-10.027a2.507,2.507,0,0,0-1.558-1.818,2.425,2.425,0,0,0-.888-.168H443.208a2.424,2.424,0,0,0-.888.167,2.507,2.507,0,0,0-1.558,1.818l-2.111,10.027a2.5,2.5,0,0,0,.51,2.086Z" transform="translate(-183.389 -133.445)" fill="#2f2e41"/>
    <rect id="Rectangle_14" data-name="Rectangle 14" width="4.188" height="2.513" rx="0.488" transform="translate(390.631 368.85) rotate(180)" fill="#3f3d56"/>
    <rect id="Rectangle_15" data-name="Rectangle 15" width="4.188" height="2.513" rx="0.488" transform="translate(382.254 368.85) rotate(180)" fill="#3f3d56"/>
    <rect id="Rectangle_16" data-name="Rectangle 16" width="4.188" height="2.513" rx="0.488" transform="translate(373.877 368.85) rotate(180)" fill="#3f3d56"/>
    <rect id="Rectangle_17" data-name="Rectangle 17" width="4.188" height="2.513" rx="0.488" transform="translate(365.5 368.85) rotate(180)" fill="#3f3d56"/>
    <rect id="Rectangle_18" data-name="Rectangle 18" width="4.188" height="2.513" rx="0.488" transform="translate(357.123 368.85) rotate(180)" fill="#3f3d56"/>
    <rect id="Rectangle_19" data-name="Rectangle 19" width="4.188" height="2.513" rx="0.488" transform="translate(348.746 368.85) rotate(180)" fill="#3f3d56"/>
    <rect id="Rectangle_20" data-name="Rectangle 20" width="4.188" height="2.513" rx="0.488" transform="translate(340.369 368.85) rotate(180)" fill="#3f3d56"/>
    <rect id="Rectangle_21" data-name="Rectangle 21" width="4.188" height="2.513" rx="0.488" transform="translate(331.992 368.85) rotate(180)" fill="#3f3d56"/>
    <rect id="Rectangle_22" data-name="Rectangle 22" width="4.188" height="2.513" rx="0.488" transform="translate(323.615 368.85) rotate(180)" fill="#3f3d56"/>
    <rect id="Rectangle_23" data-name="Rectangle 23" width="4.188" height="2.513" rx="0.488" transform="translate(315.238 368.85) rotate(180)" fill="#3f3d56"/>
    <rect id="Rectangle_24" data-name="Rectangle 24" width="4.188" height="2.513" rx="0.488" transform="translate(306.861 368.85) rotate(180)" fill="#3f3d56"/>
    <rect id="Rectangle_25" data-name="Rectangle 25" width="4.188" height="2.513" rx="0.488" transform="translate(298.484 368.85) rotate(180)" fill="#3f3d56"/>
    <rect id="Rectangle_26" data-name="Rectangle 26" width="4.188" height="2.513" rx="0.488" transform="translate(290.107 368.85) rotate(180)" fill="#3f3d56"/>
    <rect id="Rectangle_27" data-name="Rectangle 27" width="4.188" height="2.513" rx="0.488" transform="translate(281.73 368.85) rotate(180)" fill="#3f3d56"/>
    <rect id="Rectangle_28" data-name="Rectangle 28" width="4.188" height="2.513" rx="0.488" transform="translate(273.353 368.85) rotate(180)" fill="#3f3d56"/>
    <rect id="Rectangle_29" data-name="Rectangle 29" width="4.188" height="2.513" rx="0.488" transform="translate(264.976 368.85) rotate(180)" fill="#3f3d56"/>
    <rect id="Rectangle_30" data-name="Rectangle 30" width="4.188" height="2.513" rx="0.488" transform="translate(390.731 373.038) rotate(180)" fill="#3f3d56"/>
    <rect id="Rectangle_31" data-name="Rectangle 31" width="4.188" height="2.513" rx="0.488" transform="translate(382.353 373.038) rotate(180)" fill="#3f3d56"/>
    <rect id="Rectangle_32" data-name="Rectangle 32" width="4.188" height="2.513" rx="0.488" transform="translate(373.976 373.038) rotate(180)" fill="#3f3d56"/>
    <rect id="Rectangle_33" data-name="Rectangle 33" width="4.188" height="2.513" rx="0.488" transform="translate(365.599 373.038) rotate(180)" fill="#3f3d56"/>
    <rect id="Rectangle_34" data-name="Rectangle 34" width="4.188" height="2.513" rx="0.488" transform="translate(357.222 373.038) rotate(180)" fill="#3f3d56"/>
    <rect id="Rectangle_35" data-name="Rectangle 35" width="4.188" height="2.513" rx="0.488" transform="translate(348.845 373.038) rotate(180)" fill="#3f3d56"/>
    <rect id="Rectangle_36" data-name="Rectangle 36" width="4.188" height="2.513" rx="0.488" transform="translate(340.468 373.038) rotate(180)" fill="#3f3d56"/>
    <rect id="Rectangle_37" data-name="Rectangle 37" width="4.188" height="2.513" rx="0.488" transform="translate(332.091 373.038) rotate(180)" fill="#3f3d56"/>
    <rect id="Rectangle_38" data-name="Rectangle 38" width="4.188" height="2.513" rx="0.488" transform="translate(323.714 373.038) rotate(180)" fill="#3f3d56"/>
    <rect id="Rectangle_39" data-name="Rectangle 39" width="4.188" height="2.513" rx="0.488" transform="translate(315.337 373.038) rotate(180)" fill="#3f3d56"/>
    <rect id="Rectangle_40" data-name="Rectangle 40" width="4.188" height="2.513" rx="0.488" transform="translate(306.96 373.038) rotate(180)" fill="#3f3d56"/>
    <rect id="Rectangle_41" data-name="Rectangle 41" width="4.188" height="2.513" rx="0.488" transform="translate(298.583 373.038) rotate(180)" fill="#3f3d56"/>
    <rect id="Rectangle_42" data-name="Rectangle 42" width="4.188" height="2.513" rx="0.488" transform="translate(290.206 373.038) rotate(180)" fill="#3f3d56"/>
    <rect id="Rectangle_43" data-name="Rectangle 43" width="4.188" height="2.513" rx="0.488" transform="translate(281.829 373.038) rotate(180)" fill="#3f3d56"/>
    <rect id="Rectangle_44" data-name="Rectangle 44" width="4.188" height="2.513" rx="0.488" transform="translate(273.452 373.038) rotate(180)" fill="#3f3d56"/>
    <rect id="Rectangle_45" data-name="Rectangle 45" width="4.188" height="2.513" rx="0.488" transform="translate(265.075 373.038) rotate(180)" fill="#3f3d56"/>
    <rect id="Rectangle_46" data-name="Rectangle 46" width="33.508" height="2.513" rx="0.488" transform="translate(350.52 378.064) rotate(180)" fill="#3f3d56"/>
  </g>
</svg>
